PathFileType	4	(X/Y/Z)	C:/Users/beibeiliu/ov580/test_trc/User3\sequence.26_training_dense_right.trc
DataRate	CameraRate	NumFrames	NumMarkers	Units	OrigDataRate	OrigDataStartFrame	OrigNumFrames
120	120	16	19	mm	120	53	105
Frame#	Time	ThumbCMC			ThumbMCP			ThumbIP			ThumbTip			IndexMCP			IndexPIP			IndexTip			MiddleMCP			MiddlePIP			MiddleTip			RingMCP			RingPIP			RingTip			PinkyMCP			PinkyPIP			PinkyTip			BackHand1			BackHand2			BackHand3	
		X0	Y0	Z0	X1	Y1	Z1	X2	Y2	Z2	X3	Y3	Z3	X4	Y4	Z4	X5	Y5	Z5	X6	Y6	Z6	X7	Y7	Z7	X8	Y8	Z8	X9	Y9	Z9	X10	Y10	Z10	X11	Y11	Z11	X12	Y12	Z12	X13	Y13	Z13	X14	Y14	Z14	X15	Y15	Z15	X16	Y16	Z16	X17	Y17	Z17	X18	Y18	Z18	
52	0.433333	127.593	10.6	13.3818	110.876	-2.22413	-11.7728	104.673	-12.1881	-37.6154	99.1232	-22.5181	-57.3223	141.185	22.6521	-65.2655	130.377	14.7412	-89.9855	128.72	-1.94772	-113.44	164.432	14.6184	-71.2572	153.962	-7.55113	-90.7012	150.639	-45.9717	-84.8213	181.015	1.3581	-63.2555	174.569	-25.8258	-74.1102	165.414	-51.0014	-52.1249	199.901	0.424192	-48.6011	194.87	-20.3737	-66.7177	179.911	-42.738	-53.5644	191.014	27.7876	-10.4266	190.126	26.6619	22.5978	159.704	33.0338	6.08483	
53	0.441667	126.286	9.33625	15.0076	107.348	-2.48123	-9.13028	99.4702	-13.1004	-32.9522	95.6702	-23.4968	-58.8073	138.378	20.7117	-61.0326	131.331	11.2742	-85.2819	126.25	-4.99698	-106.796	161.253	19.2162	-67.8482	157.395	-0.0731159	-97.3099	152.756	-31.6141	-107.145	182.717	1.09313	-63.2631	177.416	-22.8361	-77.3627	162.339	-52.0636	-65.0227	201.475	-0.782069	-45.8723	200.16	-19.7405	-65.694	182.259	-42.5027	-63.6119	188.679	27.1973	-6.65364	188.843	26.8356	22.151	154.819	34.5506	6.58519	
54	0.45	129.337	7.70157	15.219	111.922	-3.63025	-7.16175	100.227	-13.5087	-35.1433	96.0548	-24.3682	-52.8568	138.798	18.9617	-64.8663	128.388	8.21721	-89.0601	124.322	-5.6093	-106.963	163.981	22.2309	-68.8204	160.215	10.2299	-98.8832	153.752	-11.7292	-118.928	181.143	3.2661	-62.6523	181.797	-18.4671	-80.0212	170.703	-47.5421	-78.8384	201.792	-0.495093	-48.5329	199.557	-18.8012	-67.2932	186.716	-46.5729	-68.967	185.759	26.3033	-9.21601	190.2	26.0778	23.0026	154.962	34.266	4.19306	
55	0.458333	130.638	7.6451	13.9842	113.144	-3.51165	-10.7042	100.287	-15.0075	-31.918	98.3675	-26.3545	-55.6449	137.218	19.2993	-62.8043	130.922	9.63942	-87.548	125.032	-2.73297	-107.003	165.683	23.3935	-67.344	161.907	16.4709	-95.9709	158.927	-2.17031	-125.766	186.508	6.0433	-59.5254	179.121	-13.3063	-84.5846	178.024	-43.0245	-90.836	202.828	0.624281	-44.8086	205.893	-16.626	-67.7282	194.005	-37.582	-78.1578	188.389	27.5146	-9.38411	190.078	26.081	23.2775	153.264	33.5494	4.7823	
56	0.466667	129.783	8.14506	13.8748	111.093	-5.72941	-9.12178	100.744	-16.0589	-33.0315	95.8395	-28.1735	-53.0974	138.664	19.6385	-63.2104	127.903	12.9227	-84.2836	121.605	0.760924	-109.4	164.432	23.2467	-66.5784	162.428	17.4906	-93.3104	156.355	4.60989	-124.144	182.946	9.6687	-59.1061	186.127	-4.53233	-86.0296	183.425	-28.5322	-101.163	202	1.60113	-45.4067	210.245	-12.1767	-66.4682	205.798	-34.3621	-81.4862	188.807	25.8109	-6.96408	189.856	27.8451	21.885	156.561	32.466	4.42307	
57	0.475	128.175	6.25313	15.5728	108.834	-7.57164	-9.90407	95.6898	-20.4715	-34.0053	94.7964	-31.3227	-48.5937	134.9	19.1712	-60.0821	127.312	12.9554	-85.8602	121.095	1.42146	-109.754	164.497	20.8788	-67.005	158.381	17.3243	-96.2377	155.456	7.15439	-123.769	185.947	10.8063	-58.1654	186.113	4.73389	-84.8694	182.125	-11.6018	-109.577	207.02	0.0694325	-45.704	209.35	-8.47782	-65.3031	212.771	-26.6201	-87.781	184.44	25.7158	-7.28556	189.799	26.4381	18.66	156.453	31.1687	4.51204	
58	0.483333	128.042	4.42432	12.9658	108.57	-11.1706	-5.52304	93.6298	-23.0746	-27.569	92.1908	-35.9353	-48.6216	135.933	15.9184	-60.2338	122.353	10.4161	-85.9149	116.796	1.29068	-107.389	163.225	20.0758	-64.6881	160.845	17.7747	-96.6466	151.825	12.3996	-126.731	181.676	13.3346	-57.6819	188.617	9.61311	-84.9795	187.294	3.52247	-109.023	206.72	-2.25536	-43.2804	213.71	-9.61349	-63.3084	221.899	-18.4077	-84.1388	186.913	21.0532	-6.25644	189.777	24.5396	23.663	155.47	29.5472	6.44788	
59	0.491667	128.875	1.98079	13.7182	105.937	-13.0887	-5.37437	98.4166	-26.5084	-30.5859	90.6373	-38.9583	-45.8739	132.354	15.0084	-59.4658	124.821	9.05352	-84.3879	119.855	0.399254	-108.852	163.801	21.5295	-67.1962	161.224	23.0244	-94.342	157.219	21.9346	-121.993	186.601	14.9395	-56.6331	191.304	16.8831	-81.688	194.386	14.2694	-106.825	207.42	-3.32773	-40.4792	216.624	-9.74183	-59.4562	222.497	-15.46	-79.9158	185.163	19.9119	-10.879	189.169	23.5908	22.9818	156.39	28.5639	6.80685	
60	0.5	125.947	1.433	16.2535	111.559	-14.2452	-6.27413	95.4183	-27.4152	-27.7106	86.2833	-40.8099	-45.6285	136.269	16.6104	-62.4817	123.444	10.037	-87.2992	116.288	3.13049	-110.111	164.912	24.1926	-60.9375	161.629	28.2402	-88.9613	164.871	31.6546	-124.034	189.746	16.069	-57.4529	193.563	17.8305	-79.2951	198.261	17.6919	-106.723	209.299	-5.59636	-39.6195	213.785	-10.9616	-63.4813	226.19	-18.5349	-78.571	188.475	20.0578	-8.29368	190.539	22.5633	22.3653	156.897	28.2764	3.68767	
61	0.508333	128.578	1.54482	12.5459	109.192	-15.8628	-3.56623	94.6929	-29.3549	-27.2105	91.097	-41.1235	-44.241	139.034	19.5388	-56.0596	131	16.4848	-86.0603	120.206	11.4888	-105.694	172.897	24.3516	-57.7406	167.996	34.0509	-87.6723	167.823	37.9686	-117.831	189.053	13.761	-54.5343	194.835	15.44	-77.3791	200.562	9.44268	-105.038	207.538	-7.32988	-43.3312	214.848	-16.9672	-59.2402	218.792	-29.6617	-84.7123	190.705	16.9548	-7.66551	192.678	20.0001	22.9977	156.468	27.9748	6.32242	
62	0.516667	130.005	3.28777	13.78	115.082	-16.2976	-5.92951	99.4808	-29.9828	-30.9571	92.4778	-42.1029	-45.6348	146.563	22.3372	-55.5065	138.115	23.2884	-81.0606	125.893	22.859	-106.444	177.749	28.8535	-59.8591	174.832	35.2902	-84.9605	178.425	38.3615	-118.682	194.904	7.55849	-53.0785	195.244	4.48065	-84.0442	196.832	-13.5093	-108.868	210.108	-13.3964	-39.9897	209.589	-25.9105	-62.4002	205.173	-43.2019	-80.7651	192.76	16.5339	-3.396	197.2	18.5143	26.8837	162.267	26.6594	5.98247	
63	0.525	131.055	2.74415	11.836	117.924	-17.4947	-8.96994	104.022	-31.824	-31.2273	99.8181	-47.3603	-51.2315	149.897	24.8105	-55.8173	135.966	30.6235	-82.0651	134	28.3386	-107.89	180.001	26.411	-57.6411	179.427	33.0793	-83.6556	182.909	33.497	-121.17	195.52	3.16526	-53.5118	196.48	-7.27654	-81.33	191.154	-29.4583	-99.3466	208.399	-16.1666	-40.3851	204.149	-28.6284	-58.6897	198.821	-50.3739	-74.2743	195.549	18.0326	-6.31	196.373	17.9215	27.8483	161.593	27.7406	6.40286	
64	0.533333	133.704	2.90939	17.6229	118.022	-17.867	-11.5441	109.063	-33.7219	-31.1051	113.384	-48.4086	-54.0056	147.004	28.6426	-51.7641	137.161	33.6374	-82.8884	134.245	31.4522	-107.285	176.221	28.0858	-58.2079	180.6	30.1769	-87.263	176.316	25.1333	-120.398	193.512	2.76811	-54.7828	194.022	-14.0162	-83.8691	184.594	-34.7396	-94.8372	205.811	-15.4519	-41.8277	202.897	-32.7886	-60.152	196.753	-54.3173	-70.7439	196.927	17.3278	-6.08227	197.866	18.6563	27.2434	164.442	27.8665	9.52076	
65	0.541667	133.313	2.2157	16.6505	123.366	-17.9222	-9.23759	114.75	-32.6965	-33.3229	124.365	-47.4694	-52.4174	148.241	29.7296	-50.0783	141.758	33.2794	-82.0516	133.383	28.4671	-104.31	180.008	29.3934	-59.9348	177.613	29.0393	-87.6813	169.494	14.3545	-117.655	190.84	6.49831	-56.8279	189.719	-7.30525	-82.3641	179.926	-34.0037	-94.9203	205.722	-14.3509	-43.7539	203.359	-34.1761	-61.1252	193.953	-51.5424	-70.0276	196.417	18.3196	-2.16928	195.857	17.7873	29.2249	166.76	29.8507	8.44205	
66	0.55	133.172	1.56303	17.8892	123.306	-17.9855	-7.4415	117.648	-32.2339	-37.1688	133.745	-44.4885	-52.712	148.468	30.7936	-51.8985	137.034	34.905	-78.0062	127.482	18.6899	-105.061	175.798	29.1803	-55.3946	173.337	28.3065	-88.4058	164.641	1.40419	-114.872	192.632	11.1817	-57.044	190.245	-3.60077	-84.0177	179.17	-27.9474	-92.7837	206.315	-11.154	-42.9182	203.883	-26.3577	-59.9719	193.528	-52.6094	-69.9216	198.259	18.7801	-4.75029	198.147	16.198	27.0706	165.431	27.6564	13.0716	
67	0.558333	132.331	3.58231	18.9667	123.172	-15.2637	-9.04738	123.684	-28.4573	-37.6887	136.588	-41.6637	-53.2038	149.319	32.9491	-50.9725	136.788	32.9418	-80.4466	130.014	10.3808	-100.287	172.529	33.209	-58.4995	172.301	28.5504	-87.865	161.675	-1.97943	-106.401	193.139	14.2923	-50.4549	190.148	4.41881	-80.5526	177.702	-24.7921	-87.5467	207.644	-9.45766	-41.5554	199.289	-25.44	-64.7563	189.309	-48.202	-68.7606	195.804	19.2494	-0.661537	200.518	17.0533	30.4025	163.366	30.708	11.5786	
